<?xml version="1.0" encoding="UTF-8"?>
<svg id="Capa_14" data-name="Capa 14" xmlns="http://www.w3.org/2000/svg" viewBox="0 0 1080 1080">
  <defs>
    <style>
      .cls-1 {
        font-family: XBShafighKurd-Bold, 'XB Shafigh Kurd';
        font-size: 117.14px;
        font-weight: 700;
        letter-spacing: -.05em;
      }

      .cls-1, .cls-2 {
        fill: #fff;
        stroke: #fff;
        stroke-miterlimit: 10;
      }
    </style>
  </defs>
  <text class="cls-1" transform="translate(85.91 986.61)"><tspan x="0" y="0">BP CONSULTING</tspan></text>
  <g>
    <path class="cls-2" d="m854.81,565.31v48.68l20.17,8.29v-46.9l-20.17-10.07Zm-29.38-14.66v51.27l25.57,10.5v-49.01l-25.57-12.76Zm-12.55-6.26l-.16,52.31,8.44,3.47v-51.64l-8.29-4.14Zm0,0l-.16,52.31,8.44,3.47v-51.64l-8.29-4.14Zm0,0l-.16,52.31,8.44,3.47v-51.64l-8.29-4.14Zm0,0l-.16,52.31,8.44,3.47v-51.64l-8.29-4.14Zm0,0l-.16,52.31,8.44,3.47v-51.64l-8.29-4.14Zm0,0l-.16,52.31,8.44,3.47v-51.64l-8.29-4.14Zm12.55,6.26v51.27l25.57,10.5v-49.01l-25.57-12.76Zm0,0v51.27l25.57,10.5v-49.01l-25.57-12.76Zm-12.55-6.26l-.16,52.31,8.44,3.47v-51.64l-8.29-4.14Zm0,0l-.16,52.31,8.44,3.47v-51.64l-8.29-4.14Zm12.55,6.26v51.27l25.57,10.5v-49.01l-25.57-12.76Zm0,0v51.27l25.57,10.5v-49.01l-25.57-12.76Zm-12.55-6.26l-.16,52.31,8.44,3.47v-51.64l-8.29-4.14Zm0,0l-.16,52.31,8.44,3.47v-51.64l-8.29-4.14Zm12.55,6.26v51.27l25.57,10.5v-49.01l-25.57-12.76Zm29.38,14.66v48.68l20.17,8.29v-46.9l-20.17-10.07Zm0,0v48.68l20.17,8.29v-46.9l-20.17-10.07Zm-29.38-14.66v51.27l25.57,10.5v-49.01l-25.57-12.76Zm-12.55-6.26l-.16,52.31,8.44,3.47v-51.64l-8.29-4.14Zm0,0l-.16,52.31,8.44,3.47v-51.64l-8.29-4.14Zm12.55,6.26v51.27l25.57,10.5v-49.01l-25.57-12.76Zm29.38,14.66v48.68l20.17,8.29v-46.9l-20.17-10.07Zm-41.92-20.92l-.16,52.31,8.44,3.47v-51.64l-8.29-4.14Zm.08-97.93v53.69l8.58,4.7v-53.33l-8.58-5.07Zm11.88,7.01v53.2l24.73,13.55v-52.15l-24.73-14.6Zm.58,97.18v51.27l25.57,10.5v-49.01l-25.57-12.76Zm28.09-80.25v51.99l21.46,11.76v-51.09l-21.46-12.66Zm1.29,94.91v48.68l20.17,8.29v-46.9l-20.17-10.07Zm-41.77,78.04l-.03,51.88,8.44,2.22v-51.1l-8.41-3Zm41.77-78.04v48.68l20.17,8.29v-46.9l-20.17-10.07Zm-29.38-14.66v51.27l25.57,10.5v-49.01l-25.57-12.76Zm-12.55-6.26l-.16,52.31,8.44,3.47v-51.64l-8.29-4.14Zm40.64-73.99v51.99l21.46,11.76v-51.09l-21.46-12.66Zm-28.67-16.93v53.2l24.73,13.55v-52.15l-24.73-14.6Zm-11.88-7.01v53.69l8.58,4.7v-53.33l-8.58-5.07Zm-.08,97.93l-.16,52.31,8.44,3.47v-51.64l-8.29-4.14Zm.08-97.93v53.69l8.58,4.7v-53.33l-8.58-5.07Zm11.88,7.01v53.2l24.73,13.55v-52.15l-24.73-14.6Zm.58,97.18v51.27l25.57,10.5v-49.01l-25.57-12.76Zm28.09-80.25v51.99l21.46,11.76v-51.09l-21.46-12.66Zm1.29,94.91v48.68l20.17,8.29v-46.9l-20.17-10.07Zm-41.77,78.04l-.03,51.88,8.44,2.22v-51.1l-8.41-3Zm41.77-78.04v48.68l20.17,8.29v-46.9l-20.17-10.07Zm-29.38-14.66v51.27l25.57,10.5v-49.01l-25.57-12.76Zm-12.55-6.26l-.16,52.31,8.44,3.47v-51.64l-8.29-4.14Zm40.64-73.99v51.99l21.46,11.76v-51.09l-21.46-12.66Zm-28.67-16.93v53.2l24.73,13.55v-52.15l-24.73-14.6Zm-11.88-7.01v53.69l8.58,4.7v-53.33l-8.58-5.07Zm-.08,97.93l-.16,52.31,8.44,3.47v-51.64l-8.29-4.14Zm.08-97.93v53.69l8.58,4.7v-53.33l-8.58-5.07Zm11.88,7.01v53.2l24.73,13.55v-52.15l-24.73-14.6Zm.58,97.18v51.27l25.57,10.5v-49.01l-25.57-12.76Zm28.09-80.25v51.99l21.46,11.76v-51.09l-21.46-12.66Zm1.29,94.91v48.68l20.17,8.29v-46.9l-20.17-10.07Zm-41.77,78.04l-.03,51.88,8.44,2.22v-51.1l-8.41-3Zm41.77-78.04v48.68l20.17,8.29v-46.9l-20.17-10.07Zm-29.38-14.66v51.27l25.57,10.5v-49.01l-25.57-12.76Zm-12.55-6.26l-.16,52.31,8.44,3.47v-51.64l-8.29-4.14Zm40.64-73.99v51.99l21.46,11.76v-51.09l-21.46-12.66Zm-28.67-16.93v53.2l24.73,13.55v-52.15l-24.73-14.6Zm-11.88-7.01v53.69l8.58,4.7v-53.33l-8.58-5.07Zm-.08,97.93l-.16,52.31,8.44,3.47v-51.64l-8.29-4.14Zm.08-97.93v53.69l8.58,4.7v-53.33l-8.58-5.07Zm11.88,7.01v53.2l24.73,13.55v-52.15l-24.73-14.6Zm.58,97.18v51.27l25.57,10.5v-49.01l-25.57-12.76Zm28.09-80.25v51.99l21.46,11.76v-51.09l-21.46-12.66Zm1.29,94.91v48.68l20.17,8.29v-46.9l-20.17-10.07Zm-29.72,82.35v50.76l25.68,6.8v-48.41l-25.68-9.15Zm-12.05-4.31l-.03,51.88,8.44,2.22v-51.1l-8.41-3Zm41.77-78.04v48.68l20.17,8.29v-46.9l-20.17-10.07Zm-29.38-14.66v51.27l25.57,10.5v-49.01l-25.57-12.76Zm-12.55-6.26l-.16,52.31,8.44,3.47v-51.64l-8.29-4.14Zm40.64-73.99v51.99l21.46,11.76v-51.09l-21.46-12.66Zm-28.67-16.93v53.2l24.73,13.55v-52.15l-24.73-14.6Zm-11.88-7.01v53.69l8.58,4.7v-53.33l-8.58-5.07Zm-.08,97.93l-.16,52.31,8.44,3.47v-51.64l-8.29-4.14Zm.08-97.93v53.69l8.58,4.7v-53.33l-8.58-5.07Zm11.88,7.01v53.2l24.73,13.55v-52.15l-24.73-14.6Zm.58,97.18v51.27l25.57,10.5v-49.01l-25.57-12.76Zm28.09-80.25v51.99l21.46,11.76v-51.09l-21.46-12.66Zm1.29,94.91v48.68l20.17,8.29v-46.9l-20.17-10.07Zm.45,93.1v48l19.73,5.23v-46.2l-19.73-7.03Zm-30.17-10.75v50.76l25.68,6.8v-48.41l-25.68-9.15Zm-12.05-4.31l-.03,51.88,8.44,2.22v-51.1l-8.41-3Zm41.77-78.04v48.68l20.17,8.29v-46.9l-20.17-10.07Zm-29.38-14.66v51.27l25.57,10.5v-49.01l-25.57-12.76Zm-12.55-6.26l-.16,52.31,8.44,3.47v-51.64l-8.29-4.14Zm40.64-73.99v51.99l21.46,11.76v-51.09l-21.46-12.66Zm-28.67-16.93v53.2l24.73,13.55v-52.15l-24.73-14.6Zm-11.88-7.01v53.69l8.58,4.7v-53.33l-8.58-5.07Zm-.08,97.93l-.16,52.31,8.44,3.47v-51.64l-8.29-4.14Zm.08-97.93v53.69l8.58,4.7v-53.33l-8.58-5.07Zm11.88,7.01v53.2l24.73,13.55v-52.15l-24.73-14.6Zm.58,97.18v51.27l25.57,10.5v-49.01l-25.57-12.76Zm28.09-80.25v51.99l21.46,11.76v-51.09l-21.46-12.66Zm1.29,94.91v48.68l20.17,8.29v-46.9l-20.17-10.07Zm.45,93.1v48l19.73,5.23v-46.2l-19.73-7.03Zm0,0v48l19.73,5.23v-46.2l-19.73-7.03Zm-30.17-10.75v50.76l25.68,6.8v-48.41l-25.68-9.15Zm-12.05-4.31l-.03,51.88,8.44,2.22v-51.1l-8.41-3Zm41.77-78.04v48.68l20.17,8.29v-46.9l-20.17-10.07Zm-29.38-14.66v51.27l25.57,10.5v-49.01l-25.57-12.76Zm-12.55-6.26l-.16,52.31,8.44,3.47v-51.64l-8.29-4.14Zm40.64-73.99v51.99l21.46,11.76v-51.09l-21.46-12.66Zm-28.67-16.93v53.2l24.73,13.55v-52.15l-24.73-14.6Zm-11.88-7.01v53.69l8.58,4.7v-53.33l-8.58-5.07Zm-.08,97.93l-.16,52.31,8.44,3.47v-51.64l-8.29-4.14Zm.08-97.93v53.69l8.58,4.7v-53.33l-8.58-5.07Zm11.88,7.01v53.2l24.73,13.55v-52.15l-24.73-14.6Zm.24,194.18v50.76l25.68,6.8v-48.41l-25.68-9.15Zm.34-97.01v51.27l25.57,10.5v-49.01l-25.57-12.76Zm28.09-80.25v51.99l21.46,11.76v-51.09l-21.46-12.66Zm1.29,94.91v48.68l20.17,8.29v-46.9l-20.17-10.07Zm.45,93.1v48l19.73,5.23v-46.2l-19.73-7.03Zm0,0v48l19.73,5.23v-46.2l-19.73-7.03Zm-30.17-10.75v50.76l25.68,6.8v-48.41l-25.68-9.15Zm-12.05-4.31l-.03,51.88,8.44,2.22v-51.1l-8.41-3Zm41.77-78.04v48.68l20.17,8.29v-46.9l-20.17-10.07Zm-29.38-14.66v51.27l25.57,10.5v-49.01l-25.57-12.76Zm-12.55-6.26l-.16,52.31,8.44,3.47v-51.64l-8.29-4.14Zm40.64-73.99v51.99l21.46,11.76v-51.09l-21.46-12.66Zm-28.67-16.93v53.2l24.73,13.55v-52.15l-24.73-14.6Zm-11.88-7.01v53.69l8.58,4.7v-53.33l-8.58-5.07Zm-.08,97.93l-.16,52.31,8.44,3.47v-51.64l-8.29-4.14Zm.16,98.96l-.03,51.88,8.44,2.22v-51.1l-8.41-3Zm-.07-196.89v53.69l8.58,4.7v-53.33l-8.58-5.07Zm11.88,7.01v53.2l24.73,13.55v-52.15l-24.73-14.6Zm.24,194.18v50.76l25.68,6.8v-48.41l-25.68-9.15Zm.34-97.01v51.27l25.57,10.5v-49.01l-25.57-12.76Zm28.09-80.25v51.99l21.46,11.76v-51.09l-21.46-12.66Zm1.29,94.91v48.68l20.17,8.29v-46.9l-20.17-10.07Zm.45,93.1v48l19.73,5.23v-46.2l-19.73-7.03Zm0,0v48l19.73,5.23v-46.2l-19.73-7.03Zm-30.17-10.75v50.76l25.68,6.8v-48.41l-25.68-9.15Zm-12.05-4.31l-.03,51.88,8.44,2.22v-51.1l-8.41-3Zm41.77-78.04v48.68l20.17,8.29v-46.9l-20.17-10.07Zm-29.38-14.66v51.27l25.57,10.5v-49.01l-25.57-12.76Zm-12.55-6.26l-.16,52.31,8.44,3.47v-51.64l-8.29-4.14Zm40.64-73.99v51.99l21.46,11.76v-51.09l-21.46-12.66Zm-28.67-16.93v53.2l24.73,13.55v-52.15l-24.73-14.6Zm-11.88-7.01v53.69l8.58,4.7v-53.33l-8.58-5.07Zm-.08,97.93l-.16,52.31,8.44,3.47v-51.64l-8.29-4.14Zm.16,98.96l-.03,51.88,8.44,2.22v-51.1l-8.41-3Zm-.07-196.89v53.69l8.58,4.7v-53.33l-8.58-5.07Zm11.88,7.01v53.2l24.73,13.55v-52.15l-24.73-14.6Zm.24,194.18v50.76l25.68,6.8v-48.41l-25.68-9.15Zm.34-97.01v51.27l25.57,10.5v-49.01l-25.57-12.76Zm28.09-80.25v51.99l21.46,11.76v-51.09l-21.46-12.66Zm1.29,94.91v48.68l20.17,8.29v-46.9l-20.17-10.07Zm.45,93.1v48l19.73,5.23v-46.2l-19.73-7.03Zm0,0v48l19.73,5.23v-46.2l-19.73-7.03Zm-30.17-10.75v50.76l25.68,6.8v-48.41l-25.68-9.15Zm-12.05-4.31l-.03,51.88,8.44,2.22v-51.1l-8.41-3Zm41.77-78.04v48.68l20.17,8.29v-46.9l-20.17-10.07Zm-29.38-14.66v51.27l25.57,10.5v-49.01l-25.57-12.76Zm-12.55-6.26l-.16,52.31,8.44,3.47v-51.64l-8.29-4.14Zm40.64-73.99v51.99l21.46,11.76v-51.09l-21.46-12.66Zm-28.67-16.93v53.2l24.73,13.55v-52.15l-24.73-14.6Zm-11.88-7.01v53.69l8.58,4.7v-53.33l-8.58-5.07Zm-.08,97.93l-.16,52.31,8.44,3.47v-51.64l-8.29-4.14Zm.16,98.96l-.03,51.88,8.44,2.22v-51.1l-8.41-3Zm-.07-196.89v53.69l8.58,4.7v-53.33l-8.58-5.07Zm11.88,7.01v53.2l24.73,13.55v-52.15l-24.73-14.6Zm.24,194.18v50.76l25.68,6.8v-48.41l-25.68-9.15Zm.34-97.01v51.27l25.57,10.5v-49.01l-25.57-12.76Zm28.09-80.25v51.99l21.46,11.76v-51.09l-21.46-12.66Zm1.29,94.91v48.68l20.17,8.29v-46.9l-20.17-10.07Zm.45,93.1v48l19.73,5.23v-46.2l-19.73-7.03Zm0,0v48l19.73,5.23v-46.2l-19.73-7.03Zm-30.17-10.75v50.76l25.68,6.8v-48.41l-25.68-9.15Zm-12.05-4.31l-.03,51.88,8.44,2.22v-51.1l-8.41-3Zm41.77-78.04v48.68l20.17,8.29v-46.9l-20.17-10.07Zm-29.38-14.66v51.27l25.57,10.5v-49.01l-25.57-12.76Zm-12.55-6.26l-.16,52.31,8.44,3.47v-51.64l-8.29-4.14Zm40.64-73.99v51.99l21.46,11.76v-51.09l-21.46-12.66Zm-28.67-16.93v53.2l24.73,13.55v-52.15l-24.73-14.6Zm-11.88-7.01v53.69l8.58,4.7v-53.33l-8.58-5.07Zm0,0v53.69l8.58,4.7v-53.33l-8.58-5.07Zm11.88,7.01v53.2l24.73,13.55v-52.15l-24.73-14.6Zm28.67,16.93v51.99l21.46,11.76v-51.09l-21.46-12.66Zm-40.64,73.99l-.16,52.31,8.44,3.47v-51.64l-8.29-4.14Zm12.55,6.26v51.27l25.57,10.5v-49.01l-25.57-12.76Zm29.38,14.66v48.68l20.17,8.29v-46.9l-20.17-10.07Zm-41.77,78.04l-.03,51.88,8.44,2.22v-51.1l-8.41-3Zm12.05,4.31v50.76l25.68,6.8v-48.41l-25.68-9.15Zm30.17,10.75v48l19.73,5.23v-46.2l-19.73-7.03Zm0,0v48l19.73,5.23v-46.2l-19.73-7.03Zm-.45-93.1v48.68l20.17,8.29v-46.9l-20.17-10.07Zm-1.29-94.91v51.99l21.46,11.76v-51.09l-21.46-12.66Zm-28.09,80.25v51.27l25.57,10.5v-49.01l-25.57-12.76Zm-.34,97.01v50.76l25.68,6.8v-48.41l-25.68-9.15Zm-.24-194.18v53.2l24.73,13.55v-52.15l-24.73-14.6Zm-11.88-7.01v53.69l8.58,4.7v-53.33l-8.58-5.07Zm.07,196.89l-.03,51.88,8.44,2.22v-51.1l-8.41-3Zm-.16-98.96l-.16,52.31,8.44,3.47v-51.64l-8.29-4.14Zm.08-97.93v53.69l8.58,4.7v-53.33l-8.58-5.07Zm11.88,7.01v53.2l24.73,13.55v-52.15l-24.73-14.6Zm28.67,16.93v51.99l21.46,11.76v-51.09l-21.46-12.66Zm-40.64,73.99l-.16,52.31,8.44,3.47v-51.64l-8.29-4.14Zm12.55,6.26v51.27l25.57,10.5v-49.01l-25.57-12.76Zm29.38,14.66v48.68l20.17,8.29v-46.9l-20.17-10.07Zm-41.77,78.04l-.03,51.88,8.44,2.22v-51.1l-8.41-3Zm12.05,4.31v50.76l25.68,6.8v-48.41l-25.68-9.15Zm30.17,10.75v48l19.73,5.23v-46.2l-19.73-7.03Zm0,0v48l19.73,5.23v-46.2l-19.73-7.03Zm-.45-93.1v48.68l20.17,8.29v-46.9l-20.17-10.07Zm-1.29-94.91v51.99l21.46,11.76v-51.09l-21.46-12.66Zm-28.09,80.25v51.27l25.57,10.5v-49.01l-25.57-12.76Zm-.34,97.01v50.76l25.68,6.8v-48.41l-25.68-9.15Zm-.24-194.18v53.2l24.73,13.55v-52.15l-24.73-14.6Zm-11.88-7.01v53.69l8.58,4.7v-53.33l-8.58-5.07Zm.07,196.89l-.03,51.88,8.44,2.22v-51.1l-8.41-3Zm-.16-98.96l-.16,52.31,8.44,3.47v-51.64l-8.29-4.14Zm.08-97.93v53.69l8.58,4.7v-53.33l-8.58-5.07Zm11.88,7.01v53.2l24.73,13.55v-52.15l-24.73-14.6Zm28.67,16.93v51.99l21.46,11.76v-51.09l-21.46-12.66Zm-40.64,73.99l-.16,52.31,8.44,3.47v-51.64l-8.29-4.14Zm12.55,6.26v51.27l25.57,10.5v-49.01l-25.57-12.76Zm29.38,14.66v48.68l20.17,8.29v-46.9l-20.17-10.07Zm-41.77,78.04l-.03,51.88,8.44,2.22v-51.1l-8.41-3Zm12.05,4.31v50.76l25.68,6.8v-48.41l-25.68-9.15Zm30.17,10.75v48l19.73,5.23v-46.2l-19.73-7.03Zm0,0v48l19.73,5.23v-46.2l-19.73-7.03Zm-.45-93.1v48.68l20.17,8.29v-46.9l-20.17-10.07Zm-1.29-94.91v51.99l21.46,11.76v-51.09l-21.46-12.66Zm-28.09,80.25v51.27l25.57,10.5v-49.01l-25.57-12.76Zm-.34,97.01v50.76l25.68,6.8v-48.41l-25.68-9.15Zm-.24-194.18v53.2l24.73,13.55v-52.15l-24.73-14.6Zm-11.88-7.01v53.69l8.58,4.7v-53.33l-8.58-5.07Zm.07,196.89l-.03,51.88,8.44,2.22v-51.1l-8.41-3Zm-.16-98.96l-.16,52.31,8.44,3.47v-51.64l-8.29-4.14Zm.08-97.93v53.69l8.58,4.7v-53.33l-8.58-5.07Zm11.88,7.01v53.2l24.73,13.55v-52.15l-24.73-14.6Zm28.67,16.93v51.99l21.46,11.76v-51.09l-21.46-12.66Zm-40.64,73.99l-.16,52.31,8.44,3.47v-51.64l-8.29-4.14Zm12.55,6.26v51.27l25.57,10.5v-49.01l-25.57-12.76Zm29.38,14.66v48.68l20.17,8.29v-46.9l-20.17-10.07Zm-41.77,78.04l-.03,51.88,8.44,2.22v-51.1l-8.41-3Zm12.05,4.31v50.76l25.68,6.8v-48.41l-25.68-9.15Zm30.17,10.75v48l19.73,5.23v-46.2l-19.73-7.03Zm0,0v48l19.73,5.23v-46.2l-19.73-7.03Zm-.45-93.1v48.68l20.17,8.29v-46.9l-20.17-10.07Zm-1.29-94.91v51.99l21.46,11.76v-51.09l-21.46-12.66Zm-28.09,80.25v51.27l25.57,10.5v-49.01l-25.57-12.76Zm-.34,97.01v50.76l25.68,6.8v-48.41l-25.68-9.15Zm-.24-194.18v53.2l24.73,13.55v-52.15l-24.73-14.6Zm-11.88-7.01v53.69l8.58,4.7v-53.33l-8.58-5.07Zm.07,196.89l-.03,51.88,8.44,2.22v-51.1l-8.41-3Zm-.16-98.96l-.16,52.31,8.44,3.47v-51.64l-8.29-4.14Zm.08-97.93v53.69l8.58,4.7v-53.33l-8.58-5.07Zm11.88,7.01v53.2l24.73,13.55v-52.15l-24.73-14.6Zm28.67,16.93v51.99l21.46,11.76v-51.09l-21.46-12.66Zm-40.64,73.99l-.16,52.31,8.44,3.47v-51.64l-8.29-4.14Zm12.55,6.26v51.27l25.57,10.5v-49.01l-25.57-12.76Zm29.38,14.66v48.68l20.17,8.29v-46.9l-20.17-10.07Zm-41.77,78.04l-.03,51.88,8.44,2.22v-51.1l-8.41-3Zm12.05,4.31v50.76l25.68,6.8v-48.41l-25.68-9.15Zm30.17,10.75v48l19.73,5.23v-46.2l-19.73-7.03Zm0,0v48l19.73,5.23v-46.2l-19.73-7.03Zm-.45-93.1v48.68l20.17,8.29v-46.9l-20.17-10.07Zm-1.29-94.91v51.99l21.46,11.76v-51.09l-21.46-12.66Zm-28.09,80.25v51.27l25.57,10.5v-49.01l-25.57-12.76Zm-.34,97.01v50.76l25.68,6.8v-48.41l-25.68-9.15Zm-.24-194.18v53.2l24.73,13.55v-52.15l-24.73-14.6Zm-11.88-7.01v53.69l8.58,4.7v-53.33l-8.58-5.07Zm-.08,97.93l-.16,52.31,8.44,3.47v-51.64l-8.29-4.14Zm.08-97.93v53.69l8.58,4.7v-53.33l-8.58-5.07Zm11.88,7.01v53.2l24.73,13.55v-52.15l-24.73-14.6Zm28.67,16.93v51.99l21.46,11.76v-51.09l-21.46-12.66Zm-40.64,73.99l-.16,52.31,8.44,3.47v-51.64l-8.29-4.14Zm12.55,6.26v51.27l25.57,10.5v-49.01l-25.57-12.76Zm29.38,14.66v48.68l20.17,8.29v-46.9l-20.17-10.07Zm-41.77,78.04l-.03,51.88,8.44,2.22v-51.1l-8.41-3Zm12.05,4.31v50.76l25.68,6.8v-48.41l-25.68-9.15Zm30.17,10.75v48l19.73,5.23v-46.2l-19.73-7.03Zm0,0v48l19.73,5.23v-46.2l-19.73-7.03Zm-.45-93.1v48.68l20.17,8.29v-46.9l-20.17-10.07Zm-1.29-94.91v51.99l21.46,11.76v-51.09l-21.46-12.66Zm-28.09,80.25v51.27l25.57,10.5v-49.01l-25.57-12.76Zm-.58-97.18v53.2l24.73,13.55v-52.15l-24.73-14.6Zm-11.88-7.01v53.69l8.58,4.7v-53.33l-8.58-5.07Zm-.08,97.93l-.16,52.31,8.44,3.47v-51.64l-8.29-4.14Zm.08-97.93v53.69l8.58,4.7v-53.33l-8.58-5.07Zm11.88,7.01v53.2l24.73,13.55v-52.15l-24.73-14.6Zm28.67,16.93v51.99l21.46,11.76v-51.09l-21.46-12.66Zm-40.64,73.99l-.16,52.31,8.44,3.47v-51.64l-8.29-4.14Zm12.55,6.26v51.27l25.57,10.5v-49.01l-25.57-12.76Zm29.38,14.66v48.68l20.17,8.29v-46.9l-20.17-10.07Zm-41.77,78.04l-.03,51.88,8.44,2.22v-51.1l-8.41-3Zm12.05,4.31v50.76l25.68,6.8v-48.41l-25.68-9.15Zm30.17,10.75v48l19.73,5.23v-46.2l-19.73-7.03Zm-.45-93.1v48.68l20.17,8.29v-46.9l-20.17-10.07Zm-1.29-94.91v51.99l21.46,11.76v-51.09l-21.46-12.66Zm-28.09,80.25v51.27l25.57,10.5v-49.01l-25.57-12.76Zm-.58-97.18v53.2l24.73,13.55v-52.15l-24.73-14.6Zm-11.88-7.01v53.69l8.58,4.7v-53.33l-8.58-5.07Zm-.08,97.93l-.16,52.31,8.44,3.47v-51.64l-8.29-4.14Zm.08-97.93v53.69l8.58,4.7v-53.33l-8.58-5.07Zm11.88,7.01v53.2l24.73,13.55v-52.15l-24.73-14.6Zm28.67,16.93v51.99l21.46,11.76v-51.09l-21.46-12.66Zm-40.64,73.99l-.16,52.31,8.44,3.47v-51.64l-8.29-4.14Zm12.55,6.26v51.27l25.57,10.5v-49.01l-25.57-12.76Zm29.38,14.66v48.68l20.17,8.29v-46.9l-20.17-10.07Zm-41.77,78.04l-.03,51.88,8.44,2.22v-51.1l-8.41-3Zm41.77-78.04v48.68l20.17,8.29v-46.9l-20.17-10.07Zm-1.29-94.91v51.99l21.46,11.76v-51.09l-21.46-12.66Zm-28.09,80.25v51.27l25.57,10.5v-49.01l-25.57-12.76Zm-.58-97.18v53.2l24.73,13.55v-52.15l-24.73-14.6Zm-11.88-7.01v53.69l8.58,4.7v-53.33l-8.58-5.07Zm-.08,97.93l-.16,52.31,8.44,3.47v-51.64l-8.29-4.14Zm.08-97.93v53.69l8.58,4.7v-53.33l-8.58-5.07Zm11.88,7.01v53.2l24.73,13.55v-52.15l-24.73-14.6Zm28.67,16.93v51.99l21.46,11.76v-51.09l-21.46-12.66Zm-40.64,73.99l-.16,52.31,8.44,3.47v-51.64l-8.29-4.14Zm12.55,6.26v51.27l25.57,10.5v-49.01l-25.57-12.76Zm29.38,14.66v48.68l20.17,8.29v-46.9l-20.17-10.07Zm-41.77,78.04l-.03,51.88,8.44,2.22v-51.1l-8.41-3Zm41.77-78.04v48.68l20.17,8.29v-46.9l-20.17-10.07Zm-1.29-94.91v51.99l21.46,11.76v-51.09l-21.46-12.66Zm-28.09,80.25v51.27l25.57,10.5v-49.01l-25.57-12.76Zm-.58-97.18v53.2l24.73,13.55v-52.15l-24.73-14.6Zm-11.88-7.01v53.69l8.58,4.7v-53.33l-8.58-5.07Zm-.08,97.93l-.16,52.31,8.44,3.47v-51.64l-8.29-4.14Zm.08-97.93v53.69l8.58,4.7v-53.33l-8.58-5.07Zm11.88,7.01v53.2l24.73,13.55v-52.15l-24.73-14.6Zm28.67,16.93v51.99l21.46,11.76v-51.09l-21.46-12.66Zm-40.64,73.99l-.16,52.31,8.44,3.47v-51.64l-8.29-4.14Zm12.55,6.26v51.27l25.57,10.5v-49.01l-25.57-12.76Zm29.38,14.66v48.68l20.17,8.29v-46.9l-20.17-10.07Zm-41.77,78.04l-.03,51.88,8.44,2.22v-51.1l-8.41-3Zm41.77-78.04v48.68l20.17,8.29v-46.9l-20.17-10.07Zm-1.29-94.91v51.99l21.46,11.76v-51.09l-21.46-12.66Zm-28.09,80.25v51.27l25.57,10.5v-49.01l-25.57-12.76Zm-.58-97.18v53.2l24.73,13.55v-52.15l-24.73-14.6Zm-11.88-7.01v53.69l8.58,4.7v-53.33l-8.58-5.07Zm-.08,97.93l-.16,52.31,8.44,3.47v-51.64l-8.29-4.14Zm.08-97.93v53.69l8.58,4.7v-53.33l-8.58-5.07Zm11.88,7.01v53.2l24.73,13.55v-52.15l-24.73-14.6Zm28.67,16.93v51.99l21.46,11.76v-51.09l-21.46-12.66Zm-40.64,73.99l-.16,52.31,8.44,3.47v-51.64l-8.29-4.14Zm12.55,6.26v51.27l25.57,10.5v-49.01l-25.57-12.76Zm29.38,14.66v48.68l20.17,8.29v-46.9l-20.17-10.07Zm-41.77,78.04l-.03,51.88,8.44,2.22v-51.1l-8.41-3Zm41.77-78.04v48.68l20.17,8.29v-46.9l-20.17-10.07Zm-1.29-94.91v51.99l21.46,11.76v-51.09l-21.46-12.66Zm-28.09,80.25v51.27l25.57,10.5v-49.01l-25.57-12.76Zm-.58-97.18v53.2l24.73,13.55v-52.15l-24.73-14.6Zm-11.88-7.01v53.69l8.58,4.7v-53.33l-8.58-5.07Zm-.08,97.93l-.16,52.31,8.44,3.47v-51.64l-8.29-4.14Zm41.92,20.92v48.68l20.17,8.29v-46.9l-20.17-10.07Zm-29.38-14.66v51.27l25.57,10.5v-49.01l-25.57-12.76Zm-12.55-6.26l-.16,52.31,8.44,3.47v-51.64l-8.29-4.14Zm0,0l-.16,52.31,8.44,3.47v-51.64l-8.29-4.14Zm12.55,6.26v51.27l25.57,10.5v-49.01l-25.57-12.76Zm0,0v51.27l25.57,10.5v-49.01l-25.57-12.76Zm-12.55-6.26l-.16,52.31,8.44,3.47v-51.64l-8.29-4.14Zm0,0l-.16,52.31,8.44,3.47v-51.64l-8.29-4.14Zm12.55,6.26v51.27l25.57,10.5v-49.01l-25.57-12.76Zm0,0v51.27l25.57,10.5v-49.01l-25.57-12.76Zm-12.55-6.26l-.16,52.31,8.44,3.47v-51.64l-8.29-4.14Zm0,0l-.16,52.31,8.44,3.47v-51.64l-8.29-4.14Zm0,0l-.16,52.31,8.44,3.47v-51.64l-8.29-4.14Zm0,0l-.16,52.31,8.44,3.47v-51.64l-8.29-4.14Zm0,0l-.16,52.31,8.44,3.47v-51.64l-8.29-4.14Zm0,0l-.16,52.31,8.44,3.47v-51.64l-8.29-4.14Zm12.55,6.26v51.27l25.57,10.5v-49.01l-25.57-12.76Zm29.38,14.66v48.68l20.17,8.29v-46.9l-20.17-10.07Zm-1.29-94.91v51.99l21.46,11.76v-51.09l-21.46-12.66Zm0,0v51.99l21.46,11.76v-51.09l-21.46-12.66Zm-28.67-16.93v53.2l24.73,13.55v-52.15l-24.73-14.6Zm28.67,16.93v51.99l21.46,11.76v-51.09l-21.46-12.66Zm0,0v51.99l21.46,11.76v-51.09l-21.46-12.66Zm-28.67-16.93v53.2l24.73,13.55v-52.15l-24.73-14.6Zm0,0v53.2l24.73,13.55v-52.15l-24.73-14.6Zm28.67,16.93v51.99l21.46,11.76v-51.09l-21.46-12.66Zm0,0v51.99l21.46,11.76v-51.09l-21.46-12.66Zm-28.67-16.93v53.2l24.73,13.55v-52.15l-24.73-14.6Zm-11.88-7.01v53.69l8.58,4.7v-53.33l-8.58-5.07Zm0,0v53.69l8.58,4.7v-53.33l-8.58-5.07Zm11.88,7.01v53.2l24.73,13.55v-52.15l-24.73-14.6Zm28.67,16.93v51.99l21.46,11.76v-51.09l-21.46-12.66Zm0,0v51.99l21.46,11.76v-51.09l-21.46-12.66Zm-28.67-16.93v53.2l24.73,13.55v-52.15l-24.73-14.6Zm-11.88-7.01v53.69l8.58,4.7v-53.33l-8.58-5.07Zm0,0v53.69l8.58,4.7v-53.33l-8.58-5.07Zm11.88,7.01v53.2l24.73,13.55v-52.15l-24.73-14.6Zm28.67,16.93v51.99l21.46,11.76v-51.09l-21.46-12.66Zm0,0v51.99l21.46,11.76v-51.09l-21.46-12.66Zm-28.67-16.93v53.2l24.73,13.55v-52.15l-24.73-14.6Zm-11.88-7.01v53.69l8.58,4.7v-53.33l-8.58-5.07Zm11.88,7.01v53.2l24.73,13.55v-52.15l-24.73-14.6Zm28.67,16.93v51.99l21.46,11.76v-51.09l-21.46-12.66Zm0,0v51.99l21.46,11.76v-51.09l-21.46-12.66Zm-28.67-16.93v53.2l24.73,13.55v-52.15l-24.73-14.6Zm0,0v53.2l24.73,13.55v-52.15l-24.73-14.6Zm28.67,16.93v51.99l21.46,11.76v-51.09l-21.46-12.66Zm0,0v51.99l21.46,11.76v-51.09l-21.46-12.66Zm0,0v51.99l21.46,11.76v-51.09l-21.46-12.66Zm-40.55,270.92v52.04s8.17.96,8.17.96v-51.51s-8.17-1.49-8.17-1.49Zm0,0v52.04s8.17.96,8.17.96v-51.51s-8.17-1.49-8.17-1.49Zm0,0v52.04s8.17.96,8.17.96v-51.51s-8.17-1.49-8.17-1.49Zm12.05,2.2v51.26l24.18,2.82.47-49.57-24.64-4.5Zm-12.05-2.2v52.04s8.17.96,8.17.96v-51.51s-8.17-1.49-8.17-1.49Zm12.05,2.2v51.26l24.18,2.82.47-49.57-24.64-4.5Zm0,0v51.26l24.18,2.82.47-49.57-24.64-4.5Zm-12.05-2.2v52.04s8.17.96,8.17.96v-51.51s-8.17-1.49-8.17-1.49Zm0,0v52.04s8.17.96,8.17.96v-51.51s-8.17-1.49-8.17-1.49Zm12.05,2.2v51.26l24.18,2.82.47-49.57-24.64-4.5Zm0,0v51.26l24.18,2.82.47-49.57-24.64-4.5Zm-12.05-2.2v52.04s8.17.96,8.17.96v-51.51s-8.17-1.49-8.17-1.49Zm0,0v52.04s8.17.96,8.17.96v-51.51s-8.17-1.49-8.17-1.49Zm12.05,2.2v51.26l24.18,2.82.47-49.57-24.64-4.5Zm29.53,5.4v49.3l20.1,2.34v-47.97l-20.1-3.67Zm0,0v49.3l20.1,2.34v-47.97l-20.1-3.67Zm-29.53-5.4v51.26l24.18,2.82.47-49.57-24.64-4.5Zm-12.05-2.2v52.04s8.17.96,8.17.96v-51.51s-8.17-1.49-8.17-1.49Zm0,0v52.04s8.17.96,8.17.96v-51.51s-8.17-1.49-8.17-1.49Zm-.08-196.93l-.16,52.31,8.44,3.47v-51.64l-8.29-4.14Zm.16,98.96l-.03,51.88,8.44,2.22v-51.1l-8.41-3Zm-.07-196.89v53.69l8.58,4.7v-53.33l-8.58-5.07Zm11.88,7.01v53.2l24.73,13.55v-52.15l-24.73-14.6Zm.17,290.04v51.26l24.18,2.82.47-49.57-24.64-4.5Zm.07-95.86v50.76l25.68,6.8v-48.41l-25.68-9.15Zm.34-97.01v51.27l25.57,10.5v-49.01l-25.57-12.76Zm29.12,198.26v49.3l20.1,2.34v-47.97l-20.1-3.67Zm-1.03-278.51v51.99l21.46,11.76v-51.09l-21.46-12.66Zm1.29,94.91v48.68l20.17,8.29v-46.9l-20.17-10.07Zm.45,93.1v48l19.73,5.23v-46.2l-19.73-7.03Zm-.71,90.5v49.3l20.1,2.34v-47.97l-20.1-3.67Zm-29.53-5.4v51.26l24.18,2.82.47-49.57-24.64-4.5Zm-12.05-2.2v52.04s8.17.96,8.17.96v-51.51s-8.17-1.49-8.17-1.49Zm42.29-82.91v48l19.73,5.23v-46.2l-19.73-7.03Zm-30.17-10.75v50.76l25.68,6.8v-48.41l-25.68-9.15Zm-12.05-4.31l-.03,51.88,8.44,2.22v-51.1l-8.41-3Zm41.77-78.04v48.68l20.17,8.29v-46.9l-20.17-10.07Zm-29.38-14.66v51.27l25.57,10.5v-49.01l-25.57-12.76Zm-12.55-6.26l-.16,52.31,8.44,3.47v-51.64l-8.29-4.14Zm40.64-73.99v51.99l21.46,11.76v-51.09l-21.46-12.66Zm-28.67-16.93v53.2l24.73,13.55v-52.15l-24.73-14.6Zm-11.88-7.01v53.69l8.58,4.7v-53.33l-8.58-5.07Zm0,294.86v52.04s8.17.96,8.17.96v-51.51s-8.17-1.49-8.17-1.49Zm-.08-196.93l-.16,52.31,8.44,3.47v-51.64l-8.29-4.14Zm.16,98.96l-.03,51.88,8.44,2.22v-51.1l-8.41-3Zm-.07-196.89v53.69l8.58,4.7v-53.33l-8.58-5.07Zm11.88,7.01v53.2l24.73,13.55v-52.15l-24.73-14.6Zm.17,290.04v51.26l24.18,2.82.47-49.57-24.64-4.5Zm.07-95.86v50.76l25.68,6.8v-48.41l-25.68-9.15Zm.34-97.01v51.27l25.57,10.5v-49.01l-25.57-12.76Zm29.12,198.26v49.3l20.1,2.34v-47.97l-20.1-3.67Zm-1.03-278.51v51.99l21.46,11.76v-51.09l-21.46-12.66Zm1.29,94.91v48.68l20.17,8.29v-46.9l-20.17-10.07Zm.45,93.1v48l19.73,5.23v-46.2l-19.73-7.03Zm-.71,90.5v49.3l20.1,2.34v-47.97l-20.1-3.67Zm-29.53,45.86l24.18,2.82.47-49.57-24.64-4.5v51.26Zm-12.07-1.42l8.19.96v-51.51s-8.17-1.49-8.17-1.49v52.04Zm42.31-134.95v48l19.73,5.23v-46.2l-19.73-7.03Zm-30.17,40.01l25.68,6.8v-48.41l-25.68-9.15v50.76Zm-12.08-3.19l8.44,2.22v-51.1l-8.41-3-.03,51.88Zm41.8-129.92v48.68l20.17,8.29v-46.9l-20.17-10.07Zm-29.38,36.61l25.57,10.5v-49.01l-25.57-12.76v51.27Zm-12.7-5.23l8.44,3.47v-51.64l-8.29-4.14-.16,52.31Zm40.79-126.3v51.99l21.46,11.76v-51.09l-21.46-12.66Zm-28.67,36.27l24.73,13.55v-52.15l-24.73-14.6v53.2Zm-11.88-6.52l8.58,4.7v-53.33l-8.58-5.07v53.69ZM40,859.85h1000l-138.86-12.53v-393.93l-118.62-68.95-132.58,63.64v79.56l9.16,5.79v-77.63l123.42-54.73v439.73h-35.44v-255.4l-201.79-106.23-209.01,102.35v259.28h-26.03v-507.72l-24.59-10.85-86.79,73.78,6.5,7.24,80.05-60.76-1.46,499.52-243.97,17.85Zm770.98-416.59l2,1.18,8.58,5.06,3.3,1.94,24.73,14.57,3.94,2.32,21.46,12.63,2.29,1.35v54.73l-2.29-1.23-21.46-11.56-3.94-2.11-24.73-13.31-3.3-1.77-8.58-4.62-2-1.08v-58.1Zm-.24,97.4l2.17,1.05,8.27,3.99,4.26,2.05,25.57,12.35,3.81,1.84,20.17,9.73,2.89,1.4v53.88l-2.89-1.18-20.17-8.17-3.81-1.56-25.57-10.37-4.26-1.73-8.46-3.43-1.98-.81v-59.06Zm-.37,98l2.68.93,8.41,2.93h0s3.64,1.27,3.64,1.27l25.68,8.97h0s4.49,1.57,4.49,1.57l19.73,6.9,3,1.05v53.52l-22.73-5.72-4.49-1.13-25.68-6.44-3.64-.92-11.09-2.78v-60.15Zm44.19,106.28l1.01.18c6.37,1.18,12.73,2.34,19.09,3.43,1.29.23,2.59.45,3.88.67v54.78l-3.88-.4-20.1-2.07-5.38-.54-24.15-2.48-3.88-.4-8.19-.85-3.22-.33v-3.97c.01-17.25-.03-35.01-.01-52.26v-3.95l3.24.59.84.14,7.35,1.33,3.87.71,20.13,3.64h.01l.55.1h.07m-124.75,10.25c-.06,1.1-.11,2.21-.17,3.31-6.84-1.16-13.68-2.31-20.52-3.47v22.42l20.45,3.71v6.87l-48.11-6.15v-7.14l21.97,2.44.17-23.33c-7.38-1.23-14.76-2.46-22.14-3.71v-3.22c7.44,1.16,14.89,2.32,22.32,3.5l-.18-33.1-22.14-5.96v-6.87l48.11,13.47v6.97l-20.45-5.88v32.45c6.9,1.23,13.8,2.45,20.69,3.68Zm-49.9-87.33l23.38,6.98v-24.7l-23.38-9.16v-3.98l23.27,8.07.11-34.59-23.38-10.74v-7.7l48.93,22.53v7.96l-19.76-7.96v33.51l19.76,7.96v3.37l-19.76-7v24.36l19.76,6.74v7.24l-48.93-15.2v-7.7Zm-100.65-30.08l28.03,9.4-.18-28.75-27.85-9.12v-6.16l27.85,9.86-.08-39.6-25.47-9.39.18-10.13,70.34,28.74v7.05l-36.74-13.55v40.49l32.04,9.77.17,5.24-32.21-9.94v27.39l30.47,10.67.08,7.69-66.63-20.25v-9.4Zm-1.15,90.82c7.44,1.16,22.97,3.22,30.42,4.39l-.21-38.07-29.94-6.98-.27-8.68,67.62,16.15v9.05l-31.87-7.72v37.33c6.91,1.23,25.45,4.35,32.36,5.58-.07,1.1.06,2.63-.01,3.74-6.84-1.16-25.51-3.91-32.35-5.07v27.72l36.8,3.84v8.19l-69.47-7.32.23-8.81,26.71,3.03.23-27.9c-7.39-1.23-22.86-2.97-30.24-4.21v-4.25Zm-216.42-135.9l192.37-96.18v329.8l-192.37,12.05v-245.67Zm522.07,74.39l-19.73-7.03v48l19.73,5.23v-46.2Zm-.01-90.05l-20.17-10.07v48.68l20.17,8.29v-46.9Zm0-92.32l-21.46-12.66v51.99l21.46,11.76v-51.09Zm-.33,269.52l-20.1-3.67v49.3l20.1,2.34v-47.97Zm-23.65-189.17l-25.57-12.76v51.27l25.57,10.5v-49.01Zm-.23,93.39l-25.68-9.15v50.76l25.68,6.8v-48.41Zm-1.1,91.21l-24.64-4.5v51.26l24.18,2.82.47-49.57Zm-.08-279.94l-24.73-14.6v53.2l24.73,13.55v-52.15Zm-28.03-16.54l-8.58-5.07v53.69l8.58,4.7v-53.33Zm-.1,194.82l-8.41-3-.03,51.88,8.44,2.22v-51.1Zm-.28-97.83l-8.29-4.14-.16,52.31,8.44,3.47v-51.64Zm-.01,194.28l-8.19-1.49v52.04s8.17.96,8.17.96v-51.51Zm-8.19-296.34v53.69l8.58,4.7v-53.33l-8.58-5.07Zm11.88,7.01v53.2l24.73,13.55v-52.15l-24.73-14.6Zm28.67,16.93v51.99l21.46,11.76v-51.09l-21.46-12.66Zm-40.64,73.99l-.16,52.31,8.44,3.47v-51.64l-8.29-4.14Zm12.55,6.26v51.27l25.57,10.5v-49.01l-25.57-12.76Zm29.38,14.66v48.68l20.17,8.29v-46.9l-20.17-10.07Zm-41.77,78.04l-.03,51.88,8.44,2.22v-51.1l-8.41-3Zm12.05,4.31v50.76l25.68,6.8v-48.41l-25.68-9.15Zm30.17,10.75v48l19.73,5.23v-46.2l-19.73-7.03Zm-42.29,82.91v52.04s8.17.96,8.17.96v-51.51s-8.17-1.49-8.17-1.49Zm12.05,2.2v51.26l24.18,2.82.47-49.57-24.64-4.5Zm29.53,5.4v49.3l20.1,2.34v-47.97l-20.1-3.67Zm.71-90.5v48l19.73,5.23v-46.2l-19.73-7.03Zm-.45-93.1v48.68l20.17,8.29v-46.9l-20.17-10.07Zm-1.29-94.91v51.99l21.46,11.76v-51.09l-21.46-12.66Zm1.03,278.51v49.3l20.1,2.34v-47.97l-20.1-3.67Zm-29.12-198.26v51.27l25.57,10.5v-49.01l-25.57-12.76Zm-.34,97.01v50.76l25.68,6.8v-48.41l-25.68-9.15Zm-.07,95.86v51.26l24.18,2.82.47-49.57-24.64-4.5Zm-.17-290.04v53.2l24.73,13.55v-52.15l-24.73-14.6Zm-11.88-7.01v53.69l8.58,4.7v-53.33l-8.58-5.07Zm.07,196.89l-.03,51.88,8.44,2.22v-51.1l-8.41-3Zm-.16-98.96l-.16,52.31,8.44,3.47v-51.64l-8.29-4.14Zm.08,196.93v52.04s8.17.96,8.17.96v-51.51s-8.17-1.49-8.17-1.49Zm41.58,7.59v49.3l20.1,2.34v-47.97l-20.1-3.67Zm-29.53-5.4v51.26l24.18,2.82.47-49.57-24.64-4.5Zm-12.05-2.2v52.04s8.17.96,8.17.96v-51.51s-8.17-1.49-8.17-1.49Zm0,0v52.04s8.17.96,8.17.96v-51.51s-8.17-1.49-8.17-1.49Zm12.05,2.2v51.26l24.18,2.82.47-49.57-24.64-4.5Zm0,0v51.26l24.18,2.82.47-49.57-24.64-4.5Zm-12.05-2.2v52.04s8.17.96,8.17.96v-51.51s-8.17-1.49-8.17-1.49Zm0,0v52.04s8.17.96,8.17.96v-51.51s-8.17-1.49-8.17-1.49Zm12.05,2.2v51.26l24.18,2.82.47-49.57-24.64-4.5Zm0,0v51.26l24.18,2.82.47-49.57-24.64-4.5Zm-12.05-2.2v52.04s8.17.96,8.17.96v-51.51s-8.17-1.49-8.17-1.49Zm12.05,2.2v51.26l24.18,2.82.47-49.57-24.64-4.5Zm-12.05-2.2v52.04s8.17.96,8.17.96v-51.51s-8.17-1.49-8.17-1.49Zm12.05,2.2v51.26l24.18,2.82.47-49.57-24.64-4.5Zm-12.05-2.2v52.04s8.17.96,8.17.96v-51.51s-8.17-1.49-8.17-1.49Zm0,0v52.04s8.17.96,8.17.96v-51.51s-8.17-1.49-8.17-1.49Zm0,0v52.04s8.17.96,8.17.96v-51.51s-8.17-1.49-8.17-1.49Zm0,0v52.04s8.17.96,8.17.96v-51.51s-8.17-1.49-8.17-1.49Zm12.05,2.2v51.26l24.18,2.82.47-49.57-24.64-4.5Zm29.53,5.4v49.3l20.1,2.34v-47.97l-20.1-3.67Z"/>
    <polygon class="cls-2" points="382.09 610.57 382.09 618.53 401.86 610.57 401.86 644.08 382.09 652.04 382.09 655.41 401.86 648.42 401.86 672.77 382.09 679.52 382.09 686.75 431.03 671.56 431.03 663.85 407.65 670.84 407.65 646.13 431.03 636.97 431.03 632.99 407.77 641.07 407.65 606.47 431.03 595.74 431.03 588.03 382.09 610.57"/>
    <polygon class="cls-2" points="446.94 581.34 446.94 589.84 477.32 575.74 477.32 614.97 446.04 626.72 446.04 631.61 477.32 620.03 477.32 647.43 446.85 658.09 446.76 665.78 513.39 645.53 513.39 636.13 485.37 645.53 485.55 616.78 513.39 606.11 513.39 601.5 485.55 611.35 485.64 571.76 512.85 559.91 512.67 549.52 446.94 581.34"/>
    <path class="cls-2" d="m382.09,711.61v6.96l20.46-5.88v32.46c-6.9,1.23-13.8,2.45-20.7,3.68.06,1.1.12,2.21.18,3.31,6.84-1.16,13.68-2.31,20.52-3.47v22.42l-20.46,3.71v6.87l48.13-6.15v-7.14l-21.97,2.44-.18-23.32c7.38-1.24,14.77-2.47,22.15-3.71v-3.22c-7.44,1.17-14.89,2.33-22.33,3.5l.18-33.09,22.15-5.97v-6.87l-48.13,13.47Z"/>
    <path class="cls-2" d="m446.04,692.3v9.04l31.87-7.71v37.34c-6.9,1.23-24.79,3.93-31.69,5.15.06,1.1-.72,3.05-.66,4.16,6.84-1.16,25.51-3.91,32.35-5.06v28.21l-28.79,2.62v8.23l64.55-5.51-.27-7.68-29.74,1.99-.23-29.11c7.38-1.24,22.85-2.97,30.24-4.2v-4.25c-7.44,1.17-22.98,3.22-30.42,4.38l.21-38.06,29.94-6.99.27-8.68-67.62,16.15Z"/>
    <polygon class="cls-2" points="202.13 487.14 202.13 542.65 221.29 531.07 221.29 473.03 202.13 487.14"/>
    <polygon class="cls-2" points="244.44 456.4 244.44 516.79 269.75 500.88 269.75 436.51 244.44 456.4"/>
    <polygon class="cls-2" points="244.44 551.87 244.44 611.35 269.75 601.23 269.75 537.4 244.44 551.87"/>
    <polygon class="cls-2" points="221.29 564.71 202.13 576.64 202.13 629.98 221.29 622.02 221.29 564.71"/>
    <polygon class="cls-2" points="244.44 648.06 269.75 639.2 269.75 699.05 244.44 703.93 244.44 648.06"/>
    <polygon class="cls-2" points="221.29 655.83 202.13 662.52 202.13 715.5 221.29 712.43 221.29 655.83"/>
    <polygon class="cls-2" points="221.29 745.52 221.29 800.84 202.13 801.57 202.13 748.23 221.29 745.52"/>
    <polygon class="cls-2" points="269.75 738.1 244.44 741.72 244.44 801.57 269.75 799.94 269.75 738.1"/>
    <polygon class="cls-2" points="812.97 446.46 821.56 451.53 821.56 504.86 812.97 500.16 812.97 446.46"/>
    <polygon class="cls-2" points="849.59 468.07 849.59 520.22 824.86 506.67 824.86 453.47 849.59 468.07"/>
    <polygon class="cls-2" points="874.98 483.06 874.98 534.15 853.52 522.39 853.52 470.4 874.98 483.06"/>
    <polygon class="cls-2" points="821.56 451.53 821.56 504.86 812.97 500.16 812.97 446.46 821.56 451.53"/>
    <polygon class="cls-2" points="849.59 468.07 849.59 520.22 824.86 506.67 824.86 453.47 849.59 468.07"/>
    <polygon class="cls-2" points="874.98 483.06 874.98 534.15 853.52 522.39 853.52 470.4 874.98 483.06"/>
    <polygon class="cls-2" points="851 563.41 851 612.42 825.44 601.92 825.44 550.65 851 563.41"/>
    <polygon class="cls-2" points="874.98 575.38 874.98 622.27 854.81 613.99 854.81 565.31 874.98 575.38"/>
    <polygon class="cls-2" points="851 563.41 851 612.42 825.44 601.92 825.44 550.65 851 563.41"/>
    <polygon class="cls-2" points="874.98 575.38 874.98 622.27 854.81 613.99 854.81 565.31 874.98 575.38"/>
    <polygon class="cls-2" points="850.78 656.8 850.78 705.21 825.1 698.42 825.1 647.65 850.78 656.8"/>
    <polygon class="cls-2" points="875 665.43 875 711.63 855.27 706.4 855.27 658.4 875 665.43"/>
    <polygon class="cls-2" points="850.78 656.8 850.78 705.21 825.1 698.42 825.1 647.65 850.78 656.8"/>
    <polygon class="cls-2" points="875 665.43 875 711.63 855.27 706.4 855.27 658.4 875 665.43"/>
    <polygon class="cls-2" points="821.46 646.35 821.46 697.45 813.02 695.23 813.04 643.35 821.46 646.35"/>
    <path class="cls-2" d="m854.56,748.91v49.3l20.1,2.34v-47.97l-20.1-3.67Zm-41.58-7.59v52.04s8.17.96,8.17.96v-51.51s-8.17-1.49-8.17-1.49Zm12.05,2.2v51.26l24.18,2.82.47-49.57-24.64-4.5Zm-15.3-6.74"/>
    <polygon class="cls-2" points="821.16 742.8 821.15 794.32 812.96 793.35 812.97 741.32 821.16 742.8"/>
    <polygon class="cls-2" points="849.67 748.02 849.2 797.59 825.03 794.77 825.03 743.51 849.67 748.02"/>
    <polygon class="cls-2" points="874.66 752.58 874.66 800.55 854.56 798.21 854.56 748.91 874.66 752.58"/>
    <g>
      <path class="cls-2" d="m486.95,282.25c4.69,2.46,8.58,4.28,11.3,5.51,3.69,1.66,5.32,2.25,6.8,4.01,2.95,3.48,2.5,8.24,2.49,9.79-.33,44.02-.1,88.04-.27,132.06-.01,3.73-.86,7.86-2.61,11.12-5.58,10.43-11.5,20.71-17.85,30.69,0,0-3.77,4.27-8.76,7.51-6.14,4-128.05,64.04-137.56,68.35-.09-211.27-.24-363.21-.53-367.81-.03-.45-.27-2.86,1.04-5.21.78-1.4,2.09-2.57,4.2-3.75,22.02-12.34,105.73-61.56,125.98-73.12,1.38-.79,3.74-1.06,5.14-.44,9.09,3.97,17.85,8.74,27.1,12.23,4.89,1.84,5.32,4.67,5.3,8.86-.08,30.51-.7,109.46.13,118.31.13,1.34.5,5.14-.64,9.85-1.33,5.47-3.96,9.06-7.88,14.29-6.26,8.35-10.72,14.24-13.4,17.75Zm-35.79-100.73c-3.08,1.02-33.39,17.9-46.25,25.73-3.97,2.42-6.33,5.42-6.24,10.93.41,24.8.46,78.47.62,80.78,1.51-.44,29.2-15.38,42.46-22.15,7.38-3.77,9.92-8.76,9.66-17.28-.73-23.48-.25-75.1-.25-78.01Zm-4.6,160.85c-14,7.34-26.57,14.36-39.53,20.59-7.62,3.67-10.01,8.63-9.73,17.13.72,21.98.24,70.99.24,74.1,2.13-.48,26.93-12.2,37.52-17.74,12.26-6.28,14.14-11.71,13.71-23.08-.81-21.2-1.42-68.03-2.21-70.99Z"/>
      <path class="cls-2" d="m602.98,339.86v139.56c-9.88-4.85-42-20.4-50.69-25.22-3.98-1.78-5.83-4.16-5.68-8.36.06-1.74,1.14-377.93,1.24-383.95,23.43,14.18,121.48,74.25,148.82,90.45,11.65,6.32,15.66,10.44,21.91,23.03,9.33,17.66,19.55,34.85,28.98,52.47,1.96,3.66,2.89,8.29,2.91,12.49.21,39.22.07,78.45.2,117.67.02,4.79-1.61,7.09-6.16,9.19-15.28,7.04-30.17,14.93-45.32,22.26-1.6.77-4.3.71-5.87-.13m-5.83-79.38c3.23,1.29,6.38-1.23,6.49-4.71,1.22-42.08.88-62.42.44-75.54,0,0,.16-11.99-1.21-13.45-2.93-3.1-7.51-5.37-25.82-16.02-12.49-7.26-42.8-24.91-57.42-33.3-3.16-1.81-7.09.48-7.09,4.12,0,34.9.02,68.43.15,101.95,0,.28-.02,1.14.44,2.06.77,1.55,2.35,2.23,2.99,2.49,2.43,1,35.21,14.13,81.03,32.4Z"/>
    </g>
  </g>
</svg>
